<?xml version="1.0" encoding="utf-8"?>
<!-- Generator: Adobe Illustrator 24.3.0, SVG Export Plug-In . SVG Version: 6.00 Build 0)  -->
<svg version="1.1" id="Layer_1" xmlns="http://www.w3.org/2000/svg" xmlns:xlink="http://www.w3.org/1999/xlink" x="0px" y="0px"
	 viewBox="0 0 290.6 72" style="enable-background:new 0 0 290.6 72;" xml:space="preserve">
<style type="text/css">
	.st0{opacity:0.55;fill:#FFFFFF;enable-background:new    ;}
	.st1{fill:#FFFFFF;}
</style>
<g>
	<g>
		<g>
			<g>
				<polygon class="st0" points="12.7,37.6 24.7,55 35.2,55 23.2,37.6 35.2,20.3 24.7,20.3 				"/>
				<polygon class="st1" points="11.2,20.3 0.6,20.3 12.7,37.6 0.6,55 11.2,55 23.2,37.6 				"/>
			</g>
		</g>
	</g>
	<g>
		<g>
			<path class="st1" d="M139.7,45.7L139.7,45.7c0-5.4,3.8-9.8,9.2-9.8c6.2,0,9.1,4.8,9.1,10.1c0,0.4,0,0.9-0.1,1.4h-13
				c0.5,2.4,2.2,3.7,4.6,3.7c1.8,0,3.1-0.6,4.5-1.9l3,2.7c-1.7,2.2-4.3,3.5-7.6,3.5C143.9,55.4,139.7,51.5,139.7,45.7z M152.9,44.2
				c-0.3-2.4-1.7-4-3.9-4c-2.2,0-3.6,1.6-4,4H152.9z"/>
		</g>
		<g>
			<path class="st1" d="M178.6,45.8L178.6,45.8c0-5.4,4.1-9.8,9.8-9.8c3.5,0,5.7,1.2,7.5,3.1l-3.2,3.5c-1.2-1.3-2.4-2.1-4.3-2.1
				c-2.6,0-4.5,2.3-4.5,5.1v0.1c0,2.9,1.8,5.2,4.7,5.2c1.8,0,3-0.8,4.3-2L196,52c-1.8,2-3.9,3.4-7.6,3.4
				C182.7,55.5,178.6,51.2,178.6,45.8z"/>
			<path class="st1" d="M196.6,29.6h5.3V39c1.2-1.6,2.8-3,5.5-3c4,0,6.3,2.6,6.3,6.9V55h-5.3V44.6c0-2.5-1.2-3.8-3.2-3.8
				s-3.3,1.3-3.3,3.8V55h-5.3V29.6z"/>
			<path class="st1" d="M214.5,49.5L214.5,49.5c0-4.1,3.1-6,7.5-6c1.9,0,3.2,0.3,4.6,0.8V44c0-2.2-1.4-3.4-4-3.4c-2,0-3.5,0.4-5.2,1
				l-1.3-4c2.1-0.9,4.1-1.5,7.2-1.5c2.9,0,5,0.8,6.3,2.1c1.4,1.4,2,3.5,2,6V55h-5.1v-2c-1.3,1.4-3.1,2.4-5.6,2.4
				C217.3,55.2,214.5,53.2,214.5,49.5z M226.6,48.3v-0.9c-0.9-0.4-2.1-0.7-3.4-0.7c-2.3,0-3.7,0.9-3.7,2.6v0.1
				c0,1.4,1.2,2.3,2.9,2.3C224.9,51.6,226.6,50.2,226.6,48.3z"/>
			<path class="st1" d="M233.4,36.4h5.3V39c1.2-1.6,2.8-3,5.5-3c4,0,6.3,2.6,6.3,6.9V55h-5.3V44.6c0-2.5-1.2-3.8-3.2-3.8
				s-3.3,1.3-3.3,3.8V55h-5.3V36.4z"/>
			<path class="st1" d="M252.5,58.8l1.8-4c1.9,1.1,3.8,1.7,6.3,1.7c3.6,0,5.3-1.7,5.3-5.1v-0.9c-1.6,1.9-3.3,3-6.1,3
				c-4.4,0-8.3-3.2-8.3-8.7v-0.1c0-5.6,4-8.7,8.3-8.7c2.9,0,4.6,1.2,6,2.8v-2.4h5.3v14.5c0,3.3-0.8,5.8-2.4,7.4
				c-1.7,1.7-4.4,2.5-8.1,2.5C257.7,60.7,254.9,60,252.5,58.8z M266,44.8L266,44.8c0-2.6-2-4.4-4.6-4.4s-4.5,1.8-4.5,4.3v0.1
				c0,2.6,2,4.3,4.5,4.3S266,47.4,266,44.8z"/>
			<path class="st1" d="M272.3,45.7L272.3,45.7c0-5.4,3.8-9.8,9.2-9.8c6.2,0,9.1,4.8,9.1,10.1c0,0.4,0,0.9-0.1,1.4h-13
				c0.5,2.4,2.2,3.7,4.6,3.7c1.8,0,3.1-0.6,4.5-1.9l3,2.7c-1.7,2.2-4.3,3.5-7.6,3.5C276.4,55.4,272.3,51.5,272.3,45.7z M285.4,44.2
				c-0.3-2.4-1.7-4-3.9-4s-3.6,1.6-4,4H285.4z"/>
		</g>
		<path class="st1" d="M125.4,20.3h-6.9l-12.4,29v-29h-7.6V34H84.4V20.3h-7.6V34H62.6V20.3H55V55h7.6V41.1h14.1V55h7.6V41.1h14.1V55
			h12.9l3.2-7.7h14.6l3.2,7.7h7.9L125.4,20.3z M117.2,40.5l4.6-11.2l4.6,11.2H117.2z"/>
		<g>
			<polygon class="st1" points="163.8,30.7 156.5,30.7 164.9,42.9 156.5,55 163.8,55 172.3,42.9 			"/>
			<polygon class="st0" points="173.4,30.7 180.7,30.7 172.3,42.9 180.7,55 173.4,55 164.9,42.9 			"/>
		</g>
	</g>
	<rect x="44.4" y="0.6" class="st1" width="0.5" height="71.4"/>
</g>
<circle class="st1" cx="4.4" cy="37.6" r="3.7"/>
<circle class="st1" cx="31.5" cy="37.6" r="3.7"/>
<circle class="st1" cx="18" cy="13.2" r="7.5"/>
</svg>
